<?xml version="1.0"?>
<svg xmlns:rdf="http://www.w3.org/1999/02/22-rdf-syntax-ns#" xmlns="http://www.w3.org/2000/svg" xmlns:cc="http://creativecommons.org/ns#" xmlns:dc="http://purl.org/dc/elements/1.1/" xmlns:svg="http://www.w3.org/2000/svg" id="svg2" viewBox="0 0 60 48" version="1.0">
  <g id="layer1">
    <path id="path2479" stroke-width="1px" stroke="#000" fill-rule="evenodd" d="m-15.7 7.317c-1.959-4.0407-3.769-5.6877-6.869-7.5923 0.352-1.0363 0.934-1.8808 0.198-3.8226 4.756-1.0655 3.818-3.6206 2.373-4.3213-12.955-6.2788-32.864-9.0798-29.466 17.784-1.566 10.542 6.12 12.493 9.829 9.8032l0.316 9.312c2.808 1.395 5.115 2.465 8.824 0.113l0.119-4.487c3.23 3.027 10.553 1.291 10.488-2.021-7.352-0.949-7.531-6.408-8.122-9.662 5.349 3.533 8.327 2.669 10.041 1.718 1.056-0.626-2.774-2.465-4.633-5.7979 1.537 0.9675 7.207 0.7282 6.902-1.0261z"/>
    <path id="path3251" d="m48.441 30.347l9.498-3.289" stroke="#000" stroke-linecap="round" stroke-width="2" fill="none"/>
    <path id="path3255" d="m47.869 35.829l9.727 3.563" stroke="#000" stroke-linecap="round" stroke-width="2" fill="none"/>
    <path id="path3257" d="m48.67 33.088l10.528 0.183" stroke="#000" stroke-linecap="round" stroke-width="2" fill="none"/>
    <path id="path3259" d="m46.038 38.204l7.095 6.121" stroke="#000" stroke-linecap="round" stroke-width="2" fill="none"/>
    <path id="path3273" fill-rule="evenodd" d="m21.815 22.429c-5.997 5.338-6.184-6.498-2.632-5.938 5.6 3.037 12.397-1.217 20.77-4.157 0.105 0.964 0.078 1.536-0.458 2.558 10.226 5.375 12.607 11.32 0.344 10.05 2.288 1.827 5.772 3.087 5.492 5.207-6.367 2.666-10.039 0.223-12.816-1.096 0.227 0.807-0.72 7.751 10.413 8.77-0.777 5.141-9.848 5.977-13.846 3.334l-0.115 4.157c-4.366 1.84-7.668 2.337-12.817-0.365l-0.228-7.4c1.067-1.006 1.971-3.121 2.428-5.345 5.585-2.798 3.63-5.858 3.465-9.775z"/>
    <path id="path3263" stroke-width="1px" stroke="#000" fill-rule="evenodd" d="m26.469 2.301c-11.381-1.252-32.116 0.5475-21.514 22.462-11.384 12.419 10.653 19.364 11.112 5.809 4.55-1.512 3.599-1.963 3.732-4.832-6.982 2.726-7.66-14.84 1.166-10.269 3.776 1.812 13.993-3.895 17.563-4.631 7.14-1.4725 7.473-6.3905-12.059-8.539z"/>
  </g>
  <metadata>
    <rdf:RDF>
      <cc:Work>
        <dc:format>image/svg+xml</dc:format>
        <dc:type rdf:resource="http://purl.org/dc/dcmitype/StillImage"/>
        <cc:license rdf:resource="http://creativecommons.org/licenses/publicdomain/"/>
        <dc:publisher>
          <cc:Agent rdf:about="http://openclipart.org/">
            <dc:title>Openclipart</dc:title>
          </cc:Agent>
        </dc:publisher>
        <dc:title>talking sign</dc:title>
        <dc:date>2012-01-22T08:27:21</dc:date>
        <dc:description>A symbol for talks</dc:description>
        <dc:source>http://openclipart.org/detail/167318/talking-sign-by-frankes</dc:source>
        <dc:creator>
          <cc:Agent>
            <dc:title>frankes</dc:title>
          </cc:Agent>
        </dc:creator>
        <dc:subject>
          <rdf:Bag>
            <rdf:li>clip art</rdf:li>
            <rdf:li>clipart</rdf:li>
            <rdf:li>reden</rdf:li>
            <rdf:li>sign</rdf:li>
            <rdf:li>sprechen</rdf:li>
            <rdf:li>talk</rdf:li>
            <rdf:li>zeichen</rdf:li>
          </rdf:Bag>
        </dc:subject>
      </cc:Work>
      <cc:License rdf:about="http://creativecommons.org/licenses/publicdomain/">
        <cc:permits rdf:resource="http://creativecommons.org/ns#Reproduction"/>
        <cc:permits rdf:resource="http://creativecommons.org/ns#Distribution"/>
        <cc:permits rdf:resource="http://creativecommons.org/ns#DerivativeWorks"/>
      </cc:License>
    </rdf:RDF>
  </metadata>
</svg>
